<svg width="363" height="362" viewBox="0 0 363 362" fill="none" xmlns="http://www.w3.org/2000/svg">
<path d="M209.795 62.6461L320.673 41.945L299.972 152.823L299.646 154.571L300.496 156.132L354.447 255.187L242.599 269.762L240.836 269.992L239.614 271.283L162.079 353.203L113.654 251.333L112.891 249.727L111.285 248.964L9.41472 200.539L91.3348 123.005L92.6262 121.782L92.8559 120.019L107.431 8.17082L206.486 62.122L208.047 62.9724L209.795 62.6461Z" fill="#9A9A9A" stroke="black" stroke-width="10"/>
<path d="M122.733 194V155.5H143.193V160.56H127.848V170.13H138.078L136.923 175.245H127.848V188.885H143.193V194H122.733ZM153.043 194V166.5H174.878C175.978 166.5 176.913 166.903 177.683 167.71C178.453 168.48 178.838 169.415 178.838 170.515V194H173.723V173.65C173.723 173.1 173.521 172.642 173.118 172.275C172.715 171.872 172.238 171.67 171.688 171.67H168.553V194H163.383V173.65C163.383 173.1 163.181 172.642 162.778 172.275C162.375 171.872 161.898 171.67 161.348 171.67H158.213V194H153.043ZM185.621 207.75V166.5H197.116C198.253 166.5 199.206 166.885 199.976 167.655C200.746 168.425 201.131 169.378 201.131 170.515V189.985C201.131 191.122 200.746 192.075 199.976 192.845C199.206 193.615 198.253 194 197.116 194H190.791V207.75H185.621ZM190.791 188.83H193.981C194.495 188.83 194.953 188.628 195.356 188.225C195.76 187.822 195.961 187.363 195.961 186.85V173.705C195.961 173.082 195.76 172.587 195.356 172.22C194.953 171.853 194.495 171.67 193.981 171.67H190.791V188.83ZM211.239 194C210.139 194 209.186 193.615 208.379 192.845C207.609 192.075 207.224 191.122 207.224 189.985V181.68C207.224 180.58 207.609 179.645 208.379 178.875C209.186 178.068 210.139 177.665 211.239 177.665H215.529C216.116 177.665 216.592 177.482 216.959 177.115C217.362 176.712 217.564 176.235 217.564 175.685V173.65C217.564 173.1 217.362 172.642 216.959 172.275C216.592 171.872 216.116 171.67 215.529 171.67H209.589L210.744 166.5H218.719C219.819 166.5 220.754 166.903 221.524 167.71C222.331 168.48 222.734 169.415 222.734 170.515V194H211.239ZM214.374 188.83H217.564V182.835H214.374C213.824 182.835 213.347 183.037 212.944 183.44C212.577 183.807 212.394 184.265 212.394 184.815V186.85C212.394 187.4 212.577 187.877 212.944 188.28C213.347 188.647 213.824 188.83 214.374 188.83ZM228.826 194V153.96L233.996 152.805V166.5H240.541L239.331 171.67H233.996V194H228.826ZM248.965 194C247.865 194 246.912 193.615 246.105 192.845C245.335 192.038 244.95 191.085 244.95 189.985V170.46C244.95 169.36 245.335 168.425 246.105 167.655C246.912 166.885 247.865 166.5 248.965 166.5H256.445C257.582 166.5 258.535 166.885 259.305 167.655C260.075 168.425 260.46 169.36 260.46 170.46V178.82C260.46 179.92 260.075 180.873 259.305 181.68C258.535 182.45 257.582 182.835 256.445 182.835H250.12V186.85C250.12 187.4 250.304 187.877 250.67 188.28C251.074 188.647 251.569 188.83 252.155 188.83H259.305L260.46 194H248.965ZM250.12 177.665H253.31C253.86 177.665 254.319 177.482 254.685 177.115C255.089 176.712 255.29 176.235 255.29 175.685V173.65C255.29 173.1 255.089 172.642 254.685 172.275C254.319 171.872 253.86 171.67 253.31 171.67H252.155C251.569 171.67 251.074 171.872 250.67 172.275C250.304 172.642 250.12 173.1 250.12 173.65V177.665Z" fill="white"/>
</svg>
