<svg width="255" height="260" viewBox="0 0 255 260" fill="none" xmlns="http://www.w3.org/2000/svg">
<path d="M147.669 46.3756L223.43 31.9138L209.258 109.523L208.945 111.236L209.764 112.772L246.729 182.162L170.214 192.357L168.429 192.595L167.205 193.916L114.278 251.092L81.2013 179.949L80.4518 178.337L78.853 177.56L9.08746 143.653L65.2234 89.3307L66.4844 88.1105L66.7063 86.3698L76.6729 8.1731L144.299 45.8326L145.886 46.7161L147.669 46.3756Z" fill="#6CB46C" stroke="black" stroke-width="10"/>
<path d="M65.1467 143.58C64.0467 143.58 63.1117 143.195 62.3417 142.425C61.5717 141.655 61.1867 140.72 61.1867 139.62V108.985C61.1867 107.922 61.5717 107.005 62.3417 106.235C63.1117 105.465 64.0467 105.08 65.1467 105.08H77.6317C78.7317 105.08 79.6667 105.465 80.4367 106.235C81.2067 107.005 81.5917 107.922 81.5917 108.985V117.565L76.4767 116.41V112.12C76.4767 111.57 76.2751 111.112 75.8717 110.745C75.5051 110.342 75.0467 110.14 74.4967 110.14H68.2817C67.7317 110.14 67.2551 110.342 66.8517 110.745C66.4851 111.112 66.3017 111.57 66.3017 112.12V136.485C66.3017 137.035 66.4851 137.512 66.8517 137.915C67.2551 138.282 67.7317 138.465 68.2817 138.465H74.4967C75.0467 138.465 75.5051 138.282 75.8717 137.915C76.2751 137.512 76.4767 137.035 76.4767 136.485V131.15H71.4167L72.5717 126.035H81.5917V139.62C81.5917 140.72 81.2067 141.655 80.4367 142.425C79.6667 143.195 78.7317 143.58 77.6317 143.58H65.1467ZM93.9732 143.58C92.8732 143.58 91.9198 143.195 91.1132 142.425C90.3432 141.655 89.9582 140.702 89.9582 139.565V131.26C89.9582 130.16 90.3432 129.225 91.1132 128.455C91.9198 127.648 92.8732 127.245 93.9732 127.245H98.2632C98.8498 127.245 99.3265 127.062 99.6932 126.695C100.097 126.292 100.298 125.815 100.298 125.265V123.23C100.298 122.68 100.097 122.222 99.6932 121.855C99.3265 121.452 98.8498 121.25 98.2632 121.25H92.3232L93.4782 116.08H101.453C102.553 116.08 103.488 116.483 104.258 117.29C105.065 118.06 105.468 118.995 105.468 120.095V143.58H93.9732ZM97.1082 138.41H100.298V132.415H97.1082C96.5582 132.415 96.0815 132.617 95.6782 133.02C95.3115 133.387 95.1282 133.845 95.1282 134.395V136.43C95.1282 136.98 95.3115 137.457 95.6782 137.86C96.0815 138.227 96.5582 138.41 97.1082 138.41ZM111.203 143.58V116.08H122.698C123.761 116.08 124.696 116.465 125.503 117.235C126.309 118.005 126.713 118.94 126.713 120.04V143.58H121.543V123.23C121.543 122.643 121.341 122.167 120.938 121.8C120.534 121.433 120.076 121.25 119.563 121.25H116.373V143.58H111.203ZM136.426 143.58C135.326 143.58 134.373 143.195 133.566 142.425C132.796 141.655 132.411 140.702 132.411 139.565V131.26C132.411 130.16 132.796 129.225 133.566 128.455C134.373 127.648 135.326 127.245 136.426 127.245H140.716C141.303 127.245 141.78 127.062 142.146 126.695C142.55 126.292 142.751 125.815 142.751 125.265V123.23C142.751 122.68 142.55 122.222 142.146 121.855C141.78 121.452 141.303 121.25 140.716 121.25H134.776L135.931 116.08H143.906C145.006 116.08 145.941 116.483 146.711 117.29C147.518 118.06 147.921 118.995 147.921 120.095V143.58H136.426ZM139.561 138.41H142.751V132.415H139.561C139.011 132.415 138.535 132.617 138.131 133.02C137.765 133.387 137.581 133.845 137.581 134.395V136.43C137.581 136.98 137.765 137.457 138.131 137.86C138.535 138.227 139.011 138.41 139.561 138.41ZM157.974 143.58C156.874 143.58 155.939 143.195 155.169 142.425C154.399 141.618 154.014 140.665 154.014 139.565V135H159.129V136.43C159.129 136.98 159.331 137.457 159.734 137.86C160.137 138.227 160.614 138.41 161.164 138.41H162.319C162.869 138.41 163.327 138.227 163.694 137.86C164.097 137.457 164.299 136.98 164.299 136.43V134.395C164.299 133.845 164.097 133.387 163.694 133.02C163.327 132.617 162.869 132.415 162.319 132.415H157.974C156.874 132.415 155.939 132.03 155.169 131.26C154.399 130.453 154.014 129.5 154.014 128.4V120.095C154.014 118.995 154.399 118.06 155.169 117.29C155.939 116.483 156.874 116.08 157.974 116.08H165.509C166.609 116.08 167.544 116.483 168.314 117.29C169.084 118.06 169.469 118.995 169.469 120.095V124.66H164.299V123.23C164.299 122.68 164.097 122.222 163.694 121.855C163.327 121.452 162.869 121.25 162.319 121.25H161.164C160.614 121.25 160.137 121.452 159.734 121.855C159.331 122.222 159.129 122.68 159.129 123.23V125.265C159.129 125.815 159.331 126.292 159.734 126.695C160.137 127.062 160.614 127.245 161.164 127.245H165.509C166.609 127.245 167.544 127.648 168.314 128.455C169.084 129.225 169.469 130.16 169.469 131.26V139.785C169.432 140.812 169.029 141.71 168.259 142.48C167.489 143.213 166.572 143.58 165.509 143.58H157.974ZM175.563 143.58V103.54L180.733 102.385V116.08H187.278L186.068 121.25H180.733V143.58H175.563ZM195.702 143.58C194.602 143.58 193.648 143.195 192.842 142.425C192.072 141.618 191.687 140.665 191.687 139.565V120.04C191.687 118.94 192.072 118.005 192.842 117.235C193.648 116.465 194.602 116.08 195.702 116.08H203.182C204.318 116.08 205.272 116.465 206.042 117.235C206.812 118.005 207.197 118.94 207.197 120.04V128.4C207.197 129.5 206.812 130.453 206.042 131.26C205.272 132.03 204.318 132.415 203.182 132.415H196.857V136.43C196.857 136.98 197.04 137.457 197.407 137.86C197.81 138.227 198.305 138.41 198.892 138.41H206.042L207.197 143.58H195.702ZM196.857 127.245H200.047C200.597 127.245 201.055 127.062 201.422 126.695C201.825 126.292 202.027 125.815 202.027 125.265V123.23C202.027 122.68 201.825 122.222 201.422 121.855C201.055 121.452 200.597 121.25 200.047 121.25H198.892C198.305 121.25 197.81 121.452 197.407 121.855C197.04 122.222 196.857 122.68 196.857 123.23V127.245Z" fill="white"/>
</svg>
