<svg width="255" height="260" viewBox="0 0 255 260" fill="none" xmlns="http://www.w3.org/2000/svg">
<path d="M147.669 46.3756L223.43 31.9138L209.258 109.523L208.945 111.236L209.764 112.772L246.729 182.162L170.214 192.357L168.429 192.595L167.205 193.916L114.278 251.092L81.2013 179.949L80.4518 178.337L78.853 177.56L9.08746 143.653L65.2234 89.3307L66.4844 88.1105L66.7063 86.3698L76.6729 8.1731L144.299 45.8326L145.886 46.7161L147.669 46.3756Z" fill="#DC5B49" stroke="black" stroke-width="10"/>
<path d="M57.0354 143.58V105.08H73.5354C74.5987 105.08 75.5154 105.465 76.2854 106.235C77.092 107.005 77.4954 107.94 77.4954 109.04V120.865C77.4954 121.965 77.092 122.9 76.2854 123.67C75.5154 124.44 74.5987 124.825 73.5354 124.825H62.1504V143.58H57.0354ZM62.1504 119.71H70.4004C70.9504 119.71 71.4087 119.527 71.7754 119.16C72.1787 118.757 72.3804 118.28 72.3804 117.73V112.12C72.3804 111.607 72.1787 111.167 71.7754 110.8C71.4087 110.397 70.9504 110.195 70.4004 110.195H62.1504V119.71ZM88.2105 143.58C87.1105 143.58 86.1572 143.195 85.3505 142.425C84.5805 141.618 84.1955 140.665 84.1955 139.565V120.04C84.1955 118.94 84.5805 118.005 85.3505 117.235C86.1572 116.465 87.1105 116.08 88.2105 116.08H95.6905C96.8272 116.08 97.7805 116.465 98.5505 117.235C99.3205 118.005 99.7055 118.94 99.7055 120.04V128.4C99.7055 129.5 99.3205 130.453 98.5505 131.26C97.7805 132.03 96.8272 132.415 95.6905 132.415H89.3655V136.43C89.3655 136.98 89.5488 137.457 89.9155 137.86C90.3188 138.227 90.8138 138.41 91.4005 138.41H98.5505L99.7055 143.58H88.2105ZM89.3655 127.245H92.5555C93.1055 127.245 93.5638 127.062 93.9305 126.695C94.3338 126.292 94.5355 125.815 94.5355 125.265V123.23C94.5355 122.68 94.3338 122.222 93.9305 121.855C93.5638 121.452 93.1055 121.25 92.5555 121.25H91.4005C90.8138 121.25 90.3188 121.452 89.9155 121.855C89.5488 122.222 89.3655 122.68 89.3655 123.23V127.245ZM105.207 143.58V116.08H116.702C117.802 116.08 118.737 116.483 119.507 117.29C120.314 118.06 120.717 118.995 120.717 120.095V126.09L115.547 124.935V123.285C115.547 122.735 115.346 122.258 114.942 121.855C114.576 121.452 114.117 121.25 113.567 121.25H110.377V143.58H105.207ZM129.697 143.58C128.56 143.58 127.607 143.195 126.837 142.425C126.067 141.655 125.682 140.702 125.682 139.565V120.095C125.682 118.958 126.067 118.005 126.837 117.235C127.607 116.465 128.56 116.08 129.697 116.08H136.022V103.54L141.192 102.33V143.58H129.697ZM132.832 138.41H136.022V121.25H132.832C132.318 121.25 131.86 121.433 131.457 121.8C131.053 122.167 130.852 122.643 130.852 123.23V136.43C130.852 136.943 131.053 137.402 131.457 137.805C131.86 138.208 132.318 138.41 132.832 138.41ZM147.284 108.71V103.54L152.454 102.33V107.5L147.284 108.71ZM147.394 143.58V117.29L152.564 116.08V143.58H147.394ZM163.125 143.58C162.025 143.58 161.09 143.195 160.32 142.425C159.55 141.618 159.165 140.665 159.165 139.565V135H164.28V136.43C164.28 136.98 164.482 137.457 164.885 137.86C165.289 138.227 165.765 138.41 166.315 138.41H167.47C168.02 138.41 168.479 138.227 168.845 137.86C169.249 137.457 169.45 136.98 169.45 136.43V134.395C169.45 133.845 169.249 133.387 168.845 133.02C168.479 132.617 168.02 132.415 167.47 132.415H163.125C162.025 132.415 161.09 132.03 160.32 131.26C159.55 130.453 159.165 129.5 159.165 128.4V120.095C159.165 118.995 159.55 118.06 160.32 117.29C161.09 116.483 162.025 116.08 163.125 116.08H170.66C171.76 116.08 172.695 116.483 173.465 117.29C174.235 118.06 174.62 118.995 174.62 120.095V124.66H169.45V123.23C169.45 122.68 169.249 122.222 168.845 121.855C168.479 121.452 168.02 121.25 167.47 121.25H166.315C165.765 121.25 165.289 121.452 164.885 121.855C164.482 122.222 164.28 122.68 164.28 123.23V125.265C164.28 125.815 164.482 126.292 164.885 126.695C165.289 127.062 165.765 127.245 166.315 127.245H170.66C171.76 127.245 172.695 127.648 173.465 128.455C174.235 129.225 174.62 130.16 174.62 131.26V139.785C174.584 140.812 174.18 141.71 173.41 142.48C172.64 143.213 171.724 143.58 170.66 143.58H163.125ZM180.714 143.58V103.54L185.884 102.385V116.08H192.429L191.219 121.25H185.884V143.58H180.714ZM200.853 143.58C199.753 143.58 198.8 143.195 197.993 142.425C197.223 141.618 196.838 140.665 196.838 139.565V120.04C196.838 118.94 197.223 118.005 197.993 117.235C198.8 116.465 199.753 116.08 200.853 116.08H208.333C209.47 116.08 210.423 116.465 211.193 117.235C211.963 118.005 212.348 118.94 212.348 120.04V128.4C212.348 129.5 211.963 130.453 211.193 131.26C210.423 132.03 209.47 132.415 208.333 132.415H202.008V136.43C202.008 136.98 202.191 137.457 202.558 137.86C202.961 138.227 203.456 138.41 204.043 138.41H211.193L212.348 143.58H200.853ZM202.008 127.245H205.198C205.748 127.245 206.206 127.062 206.573 126.695C206.976 126.292 207.178 125.815 207.178 125.265V123.23C207.178 122.68 206.976 122.222 206.573 121.855C206.206 121.452 205.748 121.25 205.198 121.25H204.043C203.456 121.25 202.961 121.452 202.558 121.855C202.191 122.222 202.008 122.68 202.008 123.23V127.245Z" fill="white"/>
</svg>
